HIERARCHY
ROOT root
{
	OFFSET 0.000000 0.000000 0.000000
	CHANNELS 6 Xposition Yposition Zposition Zrotation Yrotation Xrotation
	JOINT lhip
	{
		OFFSET 0.058581 -0.082280 -0.017664
		CHANNELS 3 Zrotation Yrotation Xrotation
		JOINT lknee
		{
			OFFSET 0.043451 -0.386469 0.008037
			CHANNELS 3 Zrotation Yrotation Xrotation
			JOINT lankle
			{
				OFFSET -0.014790 -0.426874 -0.037428
				CHANNELS 3 Zrotation Yrotation Xrotation
				JOINT ltoe
				{
					OFFSET 0.041054 -0.060286 0.122042
					CHANNELS 3 Zrotation Yrotation Xrotation
					End Site
					{
						OFFSET 0.000000 0.000000 0.000000
					}
				}
			}
		}
	}
	JOINT rhip
	{
		OFFSET -0.060310 -0.090513 -0.013543
		CHANNELS 3 Zrotation Yrotation Xrotation
		JOINT rknee
		{
			OFFSET -0.043257 -0.383688 -0.004843
			CHANNELS 3 Zrotation Yrotation Xrotation
			JOINT rankle
			{
				OFFSET 0.019056 -0.420046 -0.034562
				CHANNELS 3 Zrotation Yrotation Xrotation
				JOINT rtoe
				{
					OFFSET -0.034840 -0.062106 0.130323
					CHANNELS 3 Zrotation Yrotation Xrotation
					End Site
					{
						OFFSET 0.000000 0.000000 0.000000
					}
				}
			}
		}
	}
	JOINT lowerback
	{
		OFFSET 0.004439 0.124404 -0.038385
		CHANNELS 3 Zrotation Yrotation Xrotation
		JOINT upperback
		{
			OFFSET 0.004488 0.137956 0.026820
			CHANNELS 3 Zrotation Yrotation Xrotation
			JOINT chest
			{
				OFFSET -0.002265 0.056032 0.002855
				CHANNELS 3 Zrotation Yrotation Xrotation
				JOINT lowerneck
				{
					OFFSET -0.013390 0.211636 -0.033468
					CHANNELS 3 Zrotation Yrotation Xrotation
					JOINT upperneck
					{
						OFFSET 0.010113 0.088937 0.050410
						CHANNELS 3 Zrotation Yrotation Xrotation
						End Site
						{
							OFFSET 0.000000 0.000000 0.000000
						}
					}
				}
				JOINT lclavicle
				{
					OFFSET 0.071702 0.114000 -0.018898
					CHANNELS 3 Zrotation Yrotation Xrotation
					JOINT lshoulder
					{
						OFFSET 0.122921 0.045205 -0.019046
						CHANNELS 3 Zrotation Yrotation Xrotation
						JOINT lelbow
						{
							OFFSET 0.255332 -0.015649 -0.022946
							CHANNELS 3 Zrotation Yrotation Xrotation
							JOINT lwrist
							{
								OFFSET 0.265709 0.012698 -0.007375
								CHANNELS 3 Zrotation Yrotation Xrotation
								End Site
								{
									OFFSET 0.000000 0.000000 0.000000
								}
							}
						}
					}
				}
				JOINT rclavicle
				{
					OFFSET -0.082954 0.112472 -0.023707
					CHANNELS 3 Zrotation Yrotation Xrotation
					JOINT rshoulder
					{
						OFFSET -0.113228 0.046853 -0.008472
						CHANNELS 3 Zrotation Yrotation Xrotation
						JOINT relbow
						{
							OFFSET -0.260127 -0.014369 -0.031269
							CHANNELS 3 Zrotation Yrotation Xrotation
							JOINT rwrist
							{
								OFFSET -0.269108 0.006794 -0.006027
								CHANNELS 3 Zrotation Yrotation Xrotation
								End Site
								{
									OFFSET 0.000000 0.000000 0.000000
								}
							}
						}
					}
				}
			}
		}
	}
}
MOTION
Frames: 16
Frame Time: 0.033333
1.037108 0.706881 1.023650 -87.075450 2.953191 98.116153 4.079049 -3.132350 -12.918162 -8.707662 -3.345572 29.045046 0.753511 11.004117 -0.130225 0.000000 -0.000000 0.000000 -0.381331 -7.594639 -11.810923 5.090603 -2.667515 28.018081 0.641231 -11.779235 11.517033 0.000000 -0.000000 0.000000 -0.185213 5.107965 20.832745 -1.987037 -3.133217 -10.682779 2.357347 2.804309 4.263074 -0.615330 4.804074 -9.082381 8.693948 -1.770603 -17.039441 24.994532 -18.773015 -26.185963 21.112581 -43.886215 -38.586232 34.987492 -37.570050 -44.244802 -0.920911 -16.871338 -4.155775 -19.794326 27.975207 -16.377670 -25.320988 32.633691 -47.444158 -37.943916 45.572948 -35.945695 -1.703928 7.203765 15.593599 
0.982027 0.700468 1.101610 -84.265538 2.146284 94.371581 1.604294 -1.334149 3.207504 -0.167684 -3.859421 5.418860 -10.217601 10.489998 29.945662 0.000000 -0.000000 0.000000 -1.667652 -11.654379 2.550984 -0.486511 -6.974497 8.753138 14.084953 -11.259164 39.387758 0.000000 -0.000000 0.000000 1.282856 6.775507 18.514101 -3.691113 -3.749109 -9.180173 1.996549 1.541091 3.522581 -2.463766 -0.392252 -8.510630 9.611091 4.283163 -12.430519 21.694524 -16.505135 -31.617979 19.537504 -48.987969 -30.845555 25.706795 -39.370241 -38.952913 -3.008557 -16.849277 -5.444850 -19.161292 19.422306 -24.516021 -18.198632 42.622811 -31.036206 -39.386858 42.327447 -36.771679 -3.085365 9.467711 16.021818 
0.942288 0.693259 1.163821 -81.081382 1.170491 96.815864 -0.050854 2.080780 5.066016 3.223270 3.479304 -6.122117 -7.295031 15.466621 33.718483 0.000000 -0.000000 0.000000 -0.807062 -12.335617 2.002321 -2.073461 -8.015716 2.819145 13.397108 -13.109727 40.370710 0.000000 -0.000000 0.000000 -1.007318 7.015008 7.730360 -3.144767 -4.094163 -3.092318 2.447957 2.055475 -1.993568 -4.455534 -1.702793 7.463899 8.927156 7.578927 -18.023311 21.274589 -22.976597 -25.655456 22.415346 -43.077426 -29.044142 21.483535 -39.635155 -37.320623 -1.210797 -18.657161 0.428848 -19.467695 22.634165 -19.620292 -19.654565 35.575661 -28.916522 -35.718244 44.401264 -34.375877 -3.961855 11.216537 17.914105 
0.917853 0.685384 1.214626 -76.988516 0.375601 99.602206 -0.790797 0.760717 -0.369638 2.116007 7.272101 -2.355931 -6.902954 15.189196 38.774105 0.000000 -0.000000 0.000000 0.163652 -10.261792 -2.478600 -1.594850 -6.354730 1.286809 13.831921 -12.680968 43.164404 0.000000 -0.000000 0.000000 -0.876476 4.924039 5.405402 -2.997278 -4.345841 -3.752733 1.534079 2.045536 -3.778836 -4.947261 -0.632116 5.092057 8.094110 9.129903 -15.781384 19.968463 -23.266483 -23.465433 24.007448 -42.340752 -29.470357 25.041069 -38.294083 -42.407734 1.533437 -19.930659 -2.434082 -18.149545 22.170833 -17.688921 -23.185005 33.921341 -30.084175 -38.093082 41.910246 -37.499340 -6.033797 12.036630 15.452035 
0.895494 0.679187 1.257484 -71.710671 -0.323524 97.552476 -1.688926 1.590963 0.377480 1.739306 6.693094 -3.883479 -7.996567 13.999020 39.495842 0.000000 -0.000000 0.000000 0.073255 -10.557130 -2.385191 -2.585842 -6.043390 0.193274 13.651163 -12.702438 42.999112 0.000000 -0.000000 0.000000 0.193681 3.383208 9.652862 -3.588149 -5.275878 -5.599159 1.314427 0.841720 -3.569885 -5.052991 -0.217900 1.377387 8.539262 11.160791 -12.680225 19.309537 -23.814895 -24.555831 23.773191 -40.956878 -30.541085 24.710090 -37.975480 -43.964355 -0.141068 -20.143624 -2.044485 -18.621170 20.737142 -19.223104 -19.590125 32.611821 -29.867164 -44.476904 40.939135 -46.189238 -6.380174 12.198961 15.467568 
0.873171 0.675649 1.288876 -66.283057 0.028625 95.118394 -1.733163 4.432419 0.300356 2.534132 5.039045 -4.050077 -7.658955 14.908841 38.990413 0.000000 -0.000000 0.000000 0.742319 -11.897817 -2.064765 -2.896777 -5.081061 -1.048096 13.811920 -12.547537 42.991080 0.000000 -0.000000 0.000000 0.617857 2.698353 13.939706 -2.551925 -6.545671 -8.978553 2.469536 -0.238605 -0.855377 -5.889626 1.031601 -0.489889 8.568236 12.878621 -11.175940 18.076502 -25.507798 -24.010557 22.963541 -34.973991 -29.062645 24.376868 -43.369999 -46.644223 2.281155 -18.621707 -3.031312 -17.854484 20.565761 -20.342766 -18.291611 28.143901 -28.608698 -49.284481 43.495939 -52.079080 -8.084947 12.797500 15.994424 
0.849659 0.671237 1.311305 -62.367639 0.197824 93.515290 -1.911753 4.440065 0.329707 1.763022 4.449377 -4.063569 -8.744083 13.567766 39.085152 0.000000 -0.000000 0.000000 0.498664 -12.093007 -2.791207 -2.458123 -3.709126 -1.452931 14.623298 -10.911269 42.991608 0.000000 -0.000000 0.000000 0.673732 2.740047 15.008582 -1.693943 -6.985980 -9.259336 3.012317 -0.873565 0.611956 -5.897022 3.201993 -0.549240 7.408106 13.619025 -11.142873 17.036425 -24.556037 -23.475229 20.349308 -34.915926 -27.997123 26.183762 -45.246346 -47.012514 1.757253 -18.450553 -3.342471 -16.117346 18.026977 -20.105847 -17.634090 26.776572 -28.055321 -53.465376 45.175988 -55.223539 -8.181440 12.736858 15.437290 
0.826016 0.666736 1.324074 -58.690869 0.393945 93.324088 -2.570537 3.427609 -0.933141 1.628872 5.796619 -4.596385 -8.424063 13.282236 38.636922 0.000000 -0.000000 0.000000 0.694649 -10.166879 -5.328801 -2.618093 -2.154897 -1.197729 14.572023 -10.182472 42.624425 0.000000 -0.000000 0.000000 0.476150 2.608913 14.086539 -0.882849 -7.081870 -8.398064 3.131708 -1.271829 0.589204 -5.677758 5.237135 1.143662 6.755010 14.917467 -11.264655 16.840642 -23.403067 -22.303670 16.629049 -36.188468 -26.658224 28.445588 -46.382951 -47.379216 2.667924 -18.038170 -3.872266 -15.410127 14.927233 -18.908243 -14.195508 26.382643 -26.057523 -60.436663 45.613867 -59.774746 -7.859286 12.039268 13.914975 
0.802513 0.663349 1.326283 -54.954350 1.030993 93.406486 -2.790003 2.627681 -2.940250 1.598366 7.663913 -4.202426 -8.596231 13.302536 37.969093 0.000000 -0.000000 0.000000 1.371112 -6.534342 -8.151600 -3.002810 0.438050 -0.300558 15.348276 -8.902984 41.516811 0.000000 -0.000000 0.000000 0.159564 1.558654 13.522399 0.199436 -7.241962 -8.096683 3.238481 -1.695090 0.989863 -5.274123 6.763450 0.946709 6.038871 15.354901 -11.747289 17.477120 -21.569221 -20.776645 12.213681 -38.653857 -26.322860 33.133109 -46.110064 -46.271057 2.808204 -17.603426 -6.536165 -15.615605 11.816034 -16.955479 -10.055290 26.274982 -23.892314 -68.804807 45.354664 -63.059861 -8.207244 11.389749 8.875485 
0.777901 0.661282 1.317283 -50.649706 2.133672 92.855784 -2.540381 2.201680 -4.040676 1.206506 9.077137 -4.390499 -8.924183 13.189952 37.048335 0.000000 -0.000000 0.000000 2.396938 -2.376115 -9.941582 -3.642869 4.122362 0.748523 15.556432 -8.228808 39.705646 0.000000 -0.000000 0.000000 0.055314 0.420637 14.266859 1.154828 -7.687893 -7.829549 3.400481 -1.746277 0.875434 -5.059449 7.335080 -0.211317 6.600277 15.998557 -11.563001 17.193334 -22.188115 -20.235112 10.920460 -39.586966 -25.787150 33.961389 -47.128420 -45.707787 2.807693 -17.788282 -5.742136 -15.852432 10.607236 -13.728898 -5.939889 21.431197 -20.068385 -80.326545 43.977819 -71.192603 -8.128795 10.721597 4.586906 
0.751959 0.659406 1.298034 -45.395030 3.325926 91.620886 -2.355870 3.722576 -4.446855 0.752011 10.623879 -4.517309 -9.769778 12.932195 35.650677 0.000000 -0.000000 0.000000 3.449914 -0.694593 -10.534874 -4.241112 5.951484 1.836579 14.396486 -7.765448 38.038862 0.000000 -0.000000 0.000000 0.180134 -0.849230 15.751916 1.778831 -8.798861 -8.566519 3.468631 -2.700161 1.873352 -4.684618 8.079682 -0.790158 7.307963 17.385140 -11.302655 16.967089 -22.912674 -20.079452 8.572645 -40.603655 -25.445216 34.959892 -49.553954 -45.446560 2.650730 -17.940070 -6.027443 -15.559558 7.300019 -14.219081 0.222370 19.717963 -16.585234 -90.477181 45.900583 -78.891855 -8.554794 11.221623 3.665400 
0.726245 0.657566 1.268855 -39.429404 4.182403 90.949492 -2.752589 4.244671 -5.350274 0.617016 12.327003 -4.122579 -9.723495 12.597286 34.885830 0.000000 -0.000000 0.000000 3.853983 0.451427 -11.140461 -4.876341 6.701901 2.431964 13.541455 -7.259958 36.032327 0.000000 -0.000000 0.000000 -0.174617 -1.654849 16.579426 2.187162 -10.056583 -9.315257 3.443448 -3.745887 3.475738 -4.246006 8.126221 -1.200653 8.426964 18.716942 -12.327064 17.050887 -23.563778 -19.985390 4.151797 -43.669161 -24.316902 38.408988 -52.387890 -46.216617 3.595350 -17.436113 -6.167476 -16.128320 3.124803 -14.241801 8.525232 15.701441 -12.137766 -102.739585 45.526199 -87.009100 -8.336833 11.676311 2.586391 
0.697540 0.657017 1.229205 -33.140491 5.191617 90.576331 -2.551622 4.226238 -6.499766 0.528722 12.500910 -3.065690 -8.074146 11.887988 33.248491 0.000000 -0.000000 0.000000 4.520913 0.837911 -11.258158 -5.081881 7.777540 1.990537 14.543210 -4.679121 34.271083 0.000000 -0.000000 0.000000 -1.251007 -1.931092 17.425202 2.909943 -11.387655 -9.874101 3.847334 -5.390085 4.301701 -3.612988 8.220460 -2.496933 9.394601 19.201922 -12.495276 15.687910 -24.214270 -18.633892 -1.036528 -47.086119 -22.159480 41.479127 -57.044264 -45.612559 4.034848 -16.674577 -6.344772 -15.872039 -1.662043 -13.729676 16.869275 11.563225 -8.111529 -113.011117 45.960930 -93.530624 -9.964338 12.962090 0.622047 
0.667746 0.657836 1.179644 -26.976117 6.484630 91.415136 -1.591147 3.816927 -9.756901 -0.066589 13.777061 0.076194 -6.504799 10.643084 29.933175 0.000000 -0.000000 0.000000 5.260089 2.102406 -13.362450 -4.654816 9.301728 3.298791 13.801608 -4.806048 32.359927 0.000000 -0.000000 0.000000 -2.672536 -2.357268 17.198944 3.870549 -12.435538 -10.066211 3.726586 -6.935619 4.959672 -1.586347 7.949805 -5.845643 11.408644 18.319735 -10.098367 13.112225 -24.085724 -16.252592 -7.625799 -51.306534 -17.646892 44.563839 -63.029772 -43.677060 4.327201 -16.301632 -7.289692 -13.943146 -6.097343 -11.397425 24.885278 7.033610 -3.693016 -120.100114 44.964628 -96.984348 -11.308404 14.554578 -1.113171 
0.637519 0.658495 1.120389 -21.699199 7.680799 92.324373 -0.104847 0.500972 -13.899521 0.082200 11.975728 7.037949 -0.655830 10.106303 32.563509 0.000000 -0.000000 0.000000 6.085502 3.619166 -16.525619 -3.915757 9.108441 8.888391 11.691325 -6.453265 30.277690 0.000000 -0.000000 0.000000 -4.602299 -2.606148 17.459410 4.713900 -12.961098 -10.487615 3.747004 -8.004990 5.129397 0.407457 6.723044 -8.337071 14.225785 18.263765 -7.689072 8.694507 -24.801523 -12.529338 -16.290013 -53.483553 -10.419330 45.889756 -70.020869 -41.313207 6.383793 -15.073870 -8.935778 -11.923675 -8.495162 -8.658032 33.711239 -0.063609 0.330998 -123.178617 45.411134 -97.434841 -13.729703 16.050366 -3.897041 
0.605873 0.657475 1.051985 -17.087747 9.933289 91.407727 2.931695 -0.755421 -17.218209 -2.202296 9.759161 21.408796 4.049378 9.397128 13.029161 0.000000 -0.000000 0.000000 7.817287 4.517627 -18.033673 -1.623960 7.592935 18.131827 9.363134 -8.152684 26.007436 0.000000 -0.000000 0.000000 -5.488970 -2.628769 19.682978 5.209891 -13.320902 -11.321203 3.732547 -9.326043 5.964164 3.444283 7.221665 -11.387964 15.916914 18.651569 -4.521327 3.838737 -25.077290 -9.681726 -28.102328 -51.843773 -1.032338 39.347504 -76.938080 -31.341622 6.341489 -13.395724 -10.541472 -9.639823 -10.044605 -6.965284 43.219566 -5.807217 3.757889 -121.773406 49.041356 -95.866180 -15.373666 14.655890 -6.874383 
